<svg width="32" height="32" viewBox="0 0 32 32" fill="none" xmlns="http://www.w3.org/2000/svg">
<g clip-path="url(#clip0_453_35)">
<path fill-rule="evenodd" clip-rule="evenodd" d="M15.6838 2.05132C15.889 1.98289 16.111 1.98289 16.3162 2.05132L28.3122 6.04999C28.3604 6.0658 28.4074 6.08531 28.453 6.10846C28.613 6.18971 28.752 6.31432 28.851 6.47477C28.8598 6.48911 28.8683 6.50367 28.8764 6.51843L28.8779 6.52115L31.8779 12.0211C32.0154 12.2733 32.0379 12.5723 31.9396 12.8422C31.8414 13.112 31.6318 13.3266 31.3644 13.4312L29 14.3564V24.8438C29 25.2699 28.7299 25.6492 28.3273 25.7887L16.3273 29.9449C16.1153 30.0184 15.8847 30.0184 15.6727 29.9449L3.67272 25.7887C3.27005 25.6492 3 25.2699 3 24.8438V14.3564L0.635602 13.4312C0.368167 13.3266 0.158631 13.112 0.0603652 12.8422C-0.0379008 12.5723 -0.0154112 12.2733 0.122106 12.0211L3.12107 6.52305L3.1124 6.53894L3.12211 6.52115C3.12728 6.51167 3.1326 6.50226 3.13808 6.49295C3.23883 6.32155 3.38467 6.1894 3.5534 6.10525C3.59694 6.08352 3.64183 6.06508 3.68768 6.05001L15.6838 2.05132ZM16 4.05409L24.8377 7L16 9.94591L7.16228 7L16 4.05409ZM19.8644 17.9312L27 15.1391V24.1318L17 27.5954V14.6989L18.6362 17.5039C18.8845 17.9294 19.4056 18.1108 19.8644 17.9312ZM15 27.5954V14.6989L13.3638 17.5039C13.1155 17.9294 12.5944 18.1108 12.1356 17.9312L5 15.1391V24.1318L15 27.5954ZM17.484 11.5594L19.9326 15.7569L29.5786 11.9824L27.5227 8.21321L17.484 11.5594ZM14.516 11.5594L12.0674 15.7569L2.42143 11.9824L4.47734 8.21321L14.516 11.5594Z" fill="white"/>
</g>
<defs>
<clipPath id="clip0_453_35">
<rect width="32" height="32" fill="white"/>
</clipPath>
</defs>
</svg>
