<svg xmlns="http://www.w3.org/2000/svg" width="32" height="32" viewBox="0 0 32 32">
    <g fill="none" fill-rule="evenodd">
        <g fill="#FFF" fill-rule="nonzero">
            <g>
                <g>
                    <path d="M17.222 16c.553 0 1 .448 1 1v6.333h2.4c.513 0 .845.462.66.866l-.045.08-3.955 6.072c-.253.39-.861.419-1.167.084l-.064-.084-3.954-6.072c-.258-.394.028-.88.515-.94l.1-.006h2.399V17c0-.552.448-1 1-1h1.111zM30 1.333c1.105 0 2 .896 2 2v16c0 1.105-.895 2-2 2h-7.334v-2.667h6.667V4H2.667v14.667h7.999v2.666H2c-1.105 0-2-.895-2-2v-16c0-1.104.895-2 2-2h28zm-7 8c.552 0 1 .448 1 1V11c0 .552-.448 1-1 1H10.333c-.552 0-1-.448-1-1v-.667c0-.552.448-1 1-1H23z" transform="translate(-700 -177) translate(676 157) translate(24 20) matrix(1 0 0 -1 0 32)"/>
                </g>
            </g>
        </g>
    </g>
</svg>
