<svg width="22" height="22" viewBox="0 0 22 22" fill="none" xmlns="http://www.w3.org/2000/svg">
<path d="M2 3C2 2.45 2.45 2 3 2H5V0H3C1.34 0 0 1.34 0 3V5H2V3Z" fill="white"/>
<path d="M2 19V17H0V19C0 20.66 1.34 22 3 22H5V20H3C2.45 20 2 19.55 2 19Z" fill="white"/>
<path d="M17 0H19C20.66 0 22 1.34 22 3V5H20V3C20 2.45 19.55 2 19 2H17V0Z" fill="white"/>
<path d="M20 19C20 19.55 19.55 20 19 20H17V22H19C20.66 22 22 20.66 22 19V17H20V19Z" fill="white"/>
<path fill-rule="evenodd" clip-rule="evenodd" d="M18 8.13V13.87C18 14.59 17.62 15.25 17 15.6L12 18.48C11.69 18.66 11.35 18.75 11 18.75C10.65 18.75 10.31 18.66 10 18.48L5 15.6C4.38 15.25 4 14.59 4 13.87V8.13C4 7.41 4.38 6.75 5 6.39L10 3.52C10.31 3.34 10.65 3.25 11 3.25C11.35 3.25 11.69 3.34 12 3.52L17 6.4C17.62 6.75 18 7.41 18 8.13ZM6 13.87L10 16.17V11.57L6 9.24V13.87ZM7.04 7.53L11 9.84L14.96 7.53L11 5.25L7.04 7.53ZM12 16.17L16 13.87V9.24L12 11.57V16.17Z" fill="white"/>
</svg>
