<svg xmlns="http://www.w3.org/2000/svg" width="32" height="32" viewBox="0 0 32 32">
    <g fill="none" fill-rule="evenodd">
        <g fill="#FFF" fill-rule="nonzero">
            <g>
                <g>
                    <path d="M2.667 29.365c-.084.733-.588 1.302-1.334 1.302-.803 0-1.333-.66-1.333-1.474V7.088l.007-.26C.14 4.508 2.04 2.667 4.364 2.667h26.181l.17.01C31.438 2.762 32 3.244 32 4c0 .814-.651 1.333-1.455 1.333h-7.879V12H31c.552 0 1 .448 1 1v.667c0 .552-.448 1-1 1l-8.334-.001V20H31c.552 0 1 .448 1 1v.667c0 .552-.448 1-1 1l-8.334-.001v7c0 .553-.447 1-1 1H21c-.552 0-1-.447-1-1v-7h-6.667v7c0 .553-.447 1-1 1h-.666c-.553 0-1-.447-1-1l-.001-7h-8zM2.666 20h8v-5.334h-8V20zM20 14.666h-6.667V20H20v-5.334zm-9.334-9.333H4.194c-.933.11-1.527.812-1.527 1.755L2.666 12h8V5.333zm9.334 0h-6.667V12H20V5.333z" transform="translate(-244 -177) translate(220 157) translate(24 20)"/>
                </g>
            </g>
        </g>
    </g>
</svg>
