<svg xmlns="http://www.w3.org/2000/svg" width="32" height="32" viewBox="0 0 32 32">
    <g fill="none" fill-rule="evenodd">
        <g fill="#FFF" fill-rule="nonzero">
            <g>
                <g>
                    <path d="M10 21.333c2.573 0 4.667 2.01 4.667 4.5v4.834H5.333v-4.834c0-2.49 2.094-4.5 4.667-4.5zm12 0c2.573 0 4.667 2.01 4.667 4.5v4.834h-9.334v-4.834c0-2.49 2.094-4.5 4.667-4.5zm-12 1.6c-1.632 0-2.948 1.2-3.059 2.694l-.008.206v3.232h6.134v-3.232c0-1.52-1.245-2.785-2.847-2.892l-.22-.008zm12 0c-1.632 0-2.948 1.2-3.059 2.694l-.008.206v3.232h6.134v-3.232c0-1.52-1.245-2.785-2.847-2.892l-.22-.008zm-12-8.266c1.84 0 3.333 1.492 3.333 3.333 0 1.84-1.492 3.333-3.333 3.333-1.84 0-3.333-1.492-3.333-3.333 0-1.841 1.492-3.333 3.333-3.333zm12 0c1.84 0 3.333 1.492 3.333 3.333 0 1.84-1.492 3.333-3.333 3.333-1.84 0-3.333-1.492-3.333-3.333 0-1.841 1.492-3.333 3.333-3.333zM27.6 0c1.623 0 2.952 1.261 3.06 2.857l.007.21v13.866c0 1.694-1.373 3.067-3.067 3.067-.515 0-.933-.418-.933-.933 0-.473.35-.863.806-.925l.127-.009c.612 0 1.117-.457 1.19-1.05l.01-.15V3.067c0-.612-.458-1.117-1.05-1.191l-.15-.01H4.4c-.612 0-1.117.458-1.19 1.05l-.01.15v13.867c0 .612.458 1.117 1.05 1.191l.15.01c.515 0 .933.417.933.933 0 .515-.418.933-.933.933-1.623 0-2.952-1.261-3.06-2.857l-.007-.21V3.067c0-1.623 1.261-2.952 2.857-3.06L4.4 0h23.2zM10 16.267c-.957 0-1.733.776-1.733 1.733 0 .957.776 1.733 1.733 1.733.957 0 1.733-.776 1.733-1.733 0-.957-.776-1.733-1.733-1.733zm12 0c-.957 0-1.733.776-1.733 1.733 0 .957.776 1.733 1.733 1.733.957 0 1.733-.776 1.733-1.733 0-.957-.776-1.733-1.733-1.733zM13.533 6.153c.037 0 .072.01.103.029l6.078 3.647c.095.056.126.18.069.274-.017.028-.04.052-.069.068l-6.078 3.647c-.094.057-.217.026-.274-.068-.019-.031-.029-.067-.029-.103V6.353c0-.11.09-.2.2-.2z" transform="translate(-396 -667) translate(372 647) translate(24 20)"/>
                </g>
            </g>
        </g>
    </g>
</svg>
