<svg xmlns="http://www.w3.org/2000/svg" width="32" height="32" viewBox="0 0 32 32">
    <g fill="none" fill-rule="evenodd">
        <g fill="#FFF" fill-rule="nonzero">
            <g>
                <g>
                    <path d="M22.545 26.862L24 28.43c-4.33 4.665-11.304 4.762-15.742.27L8 28.43l1.455-1.568c3.614 3.895 9.476 3.895 13.09 0zm-2.756-2.91l1.157 1.246c-2.703 3.035-6.943 3.115-9.621.24l-.214-.24 1.157-1.246c2.128 2.171 5.23 2.241 7.316.21l.205-.21zm-2.43-2.619l1.158 1.247c-1.444 1.436-3.422 1.494-4.806.172l-.17-.172 1.157-1.247c.81.624 1.852.624 2.662 0zM29.334 0C30.806 0 32 1.194 32 2.667v14.666C32 18.806 30.806 20 29.333 20H2.667C1.194 20 0 18.806 0 17.333V2.667C0 1.194 1.194 0 2.667 0h26.666zm0 2.667H2.667v14.666h26.666V2.667z" transform="translate(-852 -177) translate(828 157) translate(24 20)"/>
                </g>
            </g>
        </g>
    </g>
</svg>
