<svg xmlns="http://www.w3.org/2000/svg" width="32" height="32" viewBox="0 0 32 32">
    <g fill="none" fill-rule="evenodd">
        <g fill="#FFF" fill-rule="nonzero">
            <g>
                <g>
                    <path d="M6.667 18.667c3.682 0 6.666 2.984 6.666 6.666 0 3.682-2.984 6.667-6.666 6.667C2.985 32 0 29.015 0 25.333s2.985-6.666 6.667-6.666zm0 2.133c-2.504 0-4.534 2.03-4.534 4.533 0 2.504 2.03 4.534 4.534 4.534 2.503 0 4.533-2.03 4.533-4.534 0-2.503-2.03-4.533-4.533-4.533zm16-20.8C25.612 0 28 2.388 28 5.333V24c0 2.946-2.388 5.333-5.333 5.333h-8.31c.347-.664.61-1.38.775-2.132l7.535-.001c1.693 0 3.08-1.316 3.192-2.98l.008-.22V5.333c0-1.693-1.316-3.08-2.981-3.192l-.22-.008h-12c-1.693 0-3.08 1.316-3.192 2.981l-.007.22v11.37c-.264-.025-.53-.037-.8-.037-.454 0-.899.034-1.334.102V5.333C5.333 2.388 7.721 0 10.667 0h12zm-15.2 22.667v1.866h1.866v1.6H5.867v-3.466h1.6zM16.533 12c.442 0 .8.358.8.8v.533c0 .442-.358.8-.8.8h-5.066c-.442 0-.8-.358-.8-.8V12.8c0-.442.358-.8.8-.8h5.066zm5.334-5.333c.441 0 .8.358.8.8V8c0 .442-.359.8-.8.8h-10.4c-.442 0-.8-.358-.8-.8v-.533c0-.442.358-.8.8-.8h10.4zm.166 8.533l.133.133v1.2l.101.033c.905.33 1.464 1.122 1.566 2.105l.015.213-.133.138h-1.158l-.133-.127c-.032-.745-.385-1.117-1.177-1.117-.8 0-1.281.383-1.281.963 0 .508.375.822 1.476 1.146l.26.08C23.227 20.466 24 21.2 24 22.623c0 1.192-.751 1.98-1.94 2.234l.105-.026.001 1.17-.133.133H20.46L20.328 26l-.001-1.185-.113-.031c-.987-.31-1.662-1.047-1.794-2.102l-.02-.231.133-.14h1.153l.133.122c.059.718.508 1.123 1.428 1.123.894 0 1.281-.397 1.281-.928 0-.606-.37-1-1.473-1.3l-.274-.079c-1.51-.468-2.287-1.24-2.287-2.496 0-1.139.778-1.986 1.935-2.27l-.103.029.002-1.179.133-.133h1.572z" transform="translate(-1004 -528) translate(980 508) translate(24 20)"/>
                </g>
            </g>
        </g>
    </g>
</svg>
