<svg xmlns="http://www.w3.org/2000/svg" width="32" height="32" viewBox="0 0 32 32">
    <g fill="none" fill-rule="evenodd">
        <g fill="#FFF">
            <g>
                <g>
                    <path d="M8.889 1.333c.454 0 .898.13 1.28.37l.16.11 4.692 3.519 13.246.001c1.919 0 3.5 1.449 3.71 3.312l.016.194.007.228v19.2c0 1.995-1.565 3.625-3.535 3.728l-.198.005H3.733C1.738 32 .108 30.435.005 28.465L0 28.267v-23.2C0 3.07 1.565 1.442 3.535 1.339l.198-.006H8.89zm19.378 6.134h-21.6c-.123 0-.226.083-.257.195l-.01.071-.001 22.133h21.868c.834 0 1.52-.638 1.593-1.454l.007-.145v-19.2c0-.835-.64-1.52-1.455-1.594l-.145-.006zm-19.378-4H3.733c-.834 0-1.52.639-1.593 1.454l-.007.146v23.2c0 .834.64 1.52 1.455 1.593l.145.007h.533V7.732c0-1.259.97-2.292 2.204-2.392l.197-.008h4.8L9.049 3.52c-.03-.023-.066-.04-.103-.047l-.057-.006zM23.333 10c1.841 0 3.334 1.492 3.334 3.333 0 1.841-1.493 3.334-3.334 3.334-.968 0-1.84-.413-2.448-1.072l.004.005-4.942 2.472-.008-.043c.04.207.061.42.061.638 0 .184-.015.364-.044.54l-.01.056 4.943 2.471-.014.015c.609-.665 1.485-1.082 2.458-1.082 1.841 0 3.334 1.492 3.334 3.333 0 1.84-1.493 3.333-3.334 3.333C21.493 27.333 20 25.841 20 24c0-.212.02-.42.058-.62l-.005.023-4.942-2.47.014-.015c-.61.665-1.485 1.082-2.458 1.082-1.841 0-3.334-1.492-3.334-3.333 0-1.841 1.493-3.334 3.334-3.334.969 0 1.842.414 2.45 1.075l-.006-.007 4.942-2.471.004.02c-.037-.2-.057-.406-.057-.617C20 11.493 21.492 10 23.333 10zm0 12.8c-.662 0-1.2.537-1.2 1.2 0 .663.538 1.2 1.2 1.2.663 0 1.2-.537 1.2-1.2 0-.663-.537-1.2-1.2-1.2zm-10.666-5.333c-.663 0-1.2.537-1.2 1.2 0 .662.537 1.2 1.2 1.2.662 0 1.2-.538 1.2-1.2 0-.663-.538-1.2-1.2-1.2zm10.666-5.334c-.662 0-1.2.538-1.2 1.2 0 .663.538 1.2 1.2 1.2.663 0 1.2-.537 1.2-1.2 0-.662-.537-1.2-1.2-1.2z" transform="translate(-548 -528) translate(524 508) translate(24 20)"/>
                </g>
            </g>
        </g>
    </g>
</svg>
