<svg xmlns="http://www.w3.org/2000/svg" width="32" height="32" viewBox="0 0 32 32">
    <g fill="none" fill-rule="evenodd">
        <g fill="#FFF" fill-rule="nonzero">
            <g>
                <g>
                    <path d="M16 0c8.837 0 16 7.163 16 16s-7.163 16-16 16c-3.379 0-6.513-1.047-9.095-2.835-.365-.22-.72-.472-1.066-.758-.106-.087-.201-.184-.286-.287C2.153 25.185 0 20.844 0 16 0 7.163 7.163 0 16 0zm.15 9.333c-3.39 0-4.934 2.707-4.934 5.223 0 1.685.668 4.072 2.545 5.72.042.037.08.078.114.123.074.097.437.615.321 1.279-.054.306-.23.744-.768 1.09-.132.086-.307.171-.563.284l-1.273.539c-1.566.678-3.848 1.799-4.392 3.173l.016-.034c2.392 1.96 5.45 3.137 8.784 3.137 3.434 0 6.576-1.248 8.998-3.316-.681-1.277-2.807-2.317-4.291-2.96l-1.109-.468c-.35-.15-.57-.251-.728-.354-.537-.346-.714-.784-.768-1.091-.095-.543.132-.99.258-1.187l.064-.093c.034-.045.072-.085.114-.122 1.877-1.647 2.545-4.035 2.545-5.72 0-2.516-1.544-5.223-4.933-5.223zm-.15-7.2C8.342 2.133 2.133 8.342 2.133 16c0 3.529 1.318 6.75 3.489 9.197.588-.916 1.521-1.671 2.741-2.384.93-.543 1.748-.92 3.12-1.493l.208-.088-.197-.217C9.99 19.288 9.176 17.062 9.09 14.93l-.008-.375c0-4.018 2.727-7.356 7.068-7.356 4.34 0 7.067 3.338 7.067 7.356 0 2.243-.82 4.631-2.413 6.46l-.199.216 1.047.444c.899.39 1.56.715 2.284 1.138 1.133.661 2.018 1.36 2.611 2.19 2.07-2.423 3.32-5.567 3.32-9.004 0-7.658-6.209-13.867-13.867-13.867z" transform="translate(-244 -528) translate(220 508) translate(24 20)"/>
                </g>
            </g>
        </g>
    </g>
</svg>
