<svg width="19" height="24" viewBox="0 0 19 24" fill="none" xmlns="http://www.w3.org/2000/svg">
<path d="M9.10355 5.25C10.1165 5.25 10.7911 5.63268 10.7911 7.4987C10.791 8.25 10.5642 8.76195 10.0467 10.3601C10.3785 10.7554 10.7603 11.1704 11.1887 11.5986C11.5183 11.928 12.0132 12.3491 12.534 12.7586C13.3305 12.6252 13.9391 12.5582 14.166 12.5582C14.8966 12.5582 16.416 12.6513 16.416 13.8873C16.416 14.3581 16.2496 14.8481 15.7163 15.1726C15.3755 15.3801 14.6481 15.5135 14.0811 15.1684C13.5787 14.8626 12.8757 14.4391 12.2434 13.9532C11.0684 14.1722 9.57974 14.522 8.38225 14.9941C7.22869 17.346 5.6445 18.641 4.60352 18.7421C3.74743 18.8252 2.91602 18.2431 2.91602 17.4372C2.91602 16.3271 4.10254 15.7649 5.89883 14.9151C6.2927 14.7284 6.71732 14.5275 7.16446 14.304C7.28859 14.242 7.41716 14.1822 7.54952 14.1234C7.71216 13.76 7.86593 13.3669 8.00768 12.9426C8.30209 12.0581 8.56413 11.2736 8.78715 10.5934C7.87584 9.40978 7.41602 8.33758 7.41602 7.4987C7.41602 5.59584 8.16602 5.25 9.10355 5.25ZM6.60304 15.8259C6.52779 15.8615 6.4536 15.8962 6.38056 15.9307C5.47607 16.359 4.54749 16.7558 4.19193 17.1334C4.0953 17.236 4.01262 17.4419 4.22056 17.6048C4.28636 17.6563 4.42572 17.6562 4.60352 17.6178C5.04997 17.5212 5.75819 17.0502 6.60304 15.8259ZM14.3029 13.6323C14.2369 13.6323 13.8788 13.6596 13.7201 13.6772C14.1574 13.9747 14.4384 14.1423 14.7551 14.2723C15.0718 14.4022 15.248 14.2673 15.3036 14.1298C15.3397 14.0408 15.3707 13.8349 15.0953 13.7259C14.9497 13.6683 14.7431 13.6323 14.3029 13.6323ZM9.63859 11.6041C9.47106 12.1103 9.28316 12.6724 9.07444 13.2983C9.04148 13.3982 9.00742 13.497 8.97224 13.5948C9.67756 13.3713 10.4153 13.1841 11.1086 13.0331C10.7603 12.7361 10.4988 12.4989 10.3934 12.3935C10.1236 12.124 9.87205 11.861 9.63859 11.6041ZM9.10355 6.37438C8.90691 6.37438 8.54003 6.47794 8.54003 7.4987C8.54003 7.93846 8.77665 8.57475 9.21835 9.25441C9.54303 8.41369 9.6661 8.02906 9.66607 7.4987C9.66602 6.47794 9.29808 6.37438 9.10355 6.37438Z" fill="#787878"/>
<path fill-rule="evenodd" clip-rule="evenodd" d="M14.916 2.25H4.41602C3.17338 2.25 2.16602 3.25736 2.16602 4.5V19.5C2.16602 20.7426 3.17337 21.75 4.41602 21.75H14.916C16.1587 21.75 17.166 20.7426 17.166 19.5V4.5C17.166 3.25736 16.1587 2.25 14.916 2.25ZM4.41602 0.75C2.34495 0.75 0.666016 2.42893 0.666016 4.5V19.5C0.666016 21.5711 2.34495 23.25 4.41602 23.25H14.916C16.9871 23.25 18.666 21.5711 18.666 19.5V4.5C18.666 2.42893 16.9871 0.75 14.916 0.75H4.41602Z" fill="#787878"/>
</svg>
