<svg xmlns="http://www.w3.org/2000/svg" width="32" height="32" viewBox="0 0 32 32">
    <g fill="none" fill-rule="evenodd">
        <g fill="#FFF" fill-rule="nonzero">
            <g>
                <g>
                    <path d="M16 29.966c-3.486 0-6.668-1.292-9.118-3.411L26.556 6.882c2.118 2.45 3.41 5.632 3.41 9.118 0 7.701-6.265 13.966-13.966 13.966m0-27.932c3.484 0 6.668 1.292 9.118 3.411L5.444 25.118c-2.118-2.45-3.41-5.634-3.41-9.118C2.034 8.299 8.299 2.034 16 2.034M16 0C7.178 0 0 7.178 0 16s7.178 16 16 16 16-7.178 16-16S24.822 0 16 0" transform="translate(-244 -316) translate(220 296) translate(24 20)"/>
                </g>
            </g>
        </g>
    </g>
</svg>
