<svg xmlns="http://www.w3.org/2000/svg" width="32" height="32" viewBox="0 0 32 32">
    <g fill="none" fill-rule="evenodd">
        <g fill="#FFF" fill-rule="nonzero">
            <g>
                <g>
                    <path d="M20.355 6.667c.89 0 1.613.691 1.613 1.541v.42h4.587c.47 0 .88.305.996.74l1.651 6.162c1.615.49 2.798 1.92 2.798 3.626v4.22c0 .542-.46.983-1.027.983h-1.56c-.44 1.332-1.728 2.308-3.264 2.308-1.538 0-2.827-.976-3.266-2.308H9.975c-.441 1.332-1.73 2.308-3.266 2.308-1.537 0-2.825-.976-3.266-2.308h-1.83c-.89 0-1.613-.692-1.613-1.544V8.208c0-.85.723-1.541 1.613-1.541zm5.794 15.383c-.766 0-1.386.595-1.386 1.326 0 .731.62 1.326 1.386 1.326.762 0 1.384-.595 1.384-1.326 0-.73-.622-1.326-1.384-1.326zm-19.44 0c-.764 0-1.385.595-1.385 1.326 0 .731.62 1.326 1.385 1.326.764 0 1.385-.595 1.385-1.326 0-.73-.621-1.326-1.385-1.326zm0 .612c.412 0 .745.32.745.714 0 .395-.333.713-.745.713s-.746-.318-.746-.713c0-.394.334-.714.746-.714zm19.439 0c.412 0 .745.32.745.714 0 .395-.333.713-.745.713s-.746-.318-.746-.713c0-.394.334-.714.746-.714zm1.859-5.361h-6.04v5.093h.916c.44-1.334 1.728-2.308 3.266-2.308 1.536 0 2.825.974 3.264 2.308h.533v-3.238c0-1.024-.87-1.855-1.94-1.855zm-8.093-8.67H2.054v13.763h1.389c.44-1.334 1.73-2.308 3.266-2.308s2.826.974 3.266 2.308h9.939V8.632zm5.844 1.963h-3.79v4.742h5.061l-1.27-4.742z" transform="translate(-244 -667) translate(220 647) translate(24 20)"/>
                </g>
            </g>
        </g>
    </g>
</svg>
