<svg xmlns="http://www.w3.org/2000/svg" width="32" height="32" viewBox="0 0 32 32">
    <g fill="none" fill-rule="evenodd">
        <g fill="#FFF" fill-rule="nonzero">
            <g>
                <g>
                    <path d="M10.604 0c4.276 0 7.773 3.353 7.932 7.535l.005.293v23.15c0 .564-.464 1.022-1.035 1.022-.524 0-.957-.384-1.026-.883l-.01-.138v-6.363l-5.304 3.153c-.16.095-.345.146-.533.146l-.13-.003-.06-.006c-.113 0-.177-.015-.245-.048l-.156-.09-5.305-3.152v6.363c0 .563-.464 1.021-1.035 1.021-.524 0-.957-.384-1.026-.883l-.01-.138V7.828l.006-.293C2.83 3.353 6.328 0 10.604 0zM24.11 3.301c3.517 0 6.397 2.747 6.55 6.181l.007.288v18.518c0 .564-.464 1.021-1.036 1.021-.525 0-.957-.384-1.025-.883l-.01-.138V23.56l-3.93 2.335c-.127.075-.27.124-.418.139l-.138.01c-.044 0-.093-.003-.141-.01-.098-.01-.193-.036-.284-.073l-.131-.066-3.632-2.158V21.35l4.188 2.49 4.486-2.666V9.77c0-2.44-2.013-4.426-4.486-4.426-1.829 0-3.393 1.09-4.09 2.644l-.098.236v-3.39c1.14-.942 2.588-1.533 4.188-1.533zM13.782 23.83H7.426l3.178 1.889 3.178-1.889zM16.47 8.85H4.737v12.937h11.734V8.85zm-5.867-6.806c-2.784 0-5.11 1.926-5.706 4.495l-.056.268h11.524c-.493-2.701-2.883-4.763-5.762-4.763z" transform="translate(-548 -177) translate(524 157) translate(24 20)"/>
                </g>
            </g>
        </g>
    </g>
</svg>
