<svg xmlns="http://www.w3.org/2000/svg" width="32" height="32" viewBox="0 0 32 32">
    <g fill="none" fill-rule="evenodd">
        <g fill="#FFF" fill-rule="nonzero">
            <g>
                <g>
                    <path d="M2.396 0c.567 0 1.027.46 1.027 1.027v27.55h27.55c.568 0 1.027.46 1.027 1.027s-.459 1.027-1.027 1.027H3.423v.342c0 .567-.46 1.027-1.027 1.027s-1.027-.46-1.027-1.027v-.342h-.342C.46 30.63 0 30.17 0 29.604s.46-1.027 1.027-1.027h.342V1.027C1.37.46 1.83 0 2.396 0zm5.437 20c.829 0 1.5.672 1.5 1.5v3.667c0 .828-.671 1.5-1.5 1.5h-1c-.828 0-1.5-.672-1.5-1.5V21.5c0-.828.672-1.5 1.5-1.5h1zm6.934-10.667c.828 0 1.5.672 1.5 1.5v14.334c0 .828-.672 1.5-1.5 1.5h-1c-.829 0-1.5-.672-1.5-1.5V10.833c0-.828.671-1.5 1.5-1.5h1zm6.933 5.334c.828 0 1.5.671 1.5 1.5v9c0 .828-.672 1.5-1.5 1.5h-1c-.828 0-1.5-.672-1.5-1.5v-9c0-.829.672-1.5 1.5-1.5h1zM28.633 4c.829 0 1.5.672 1.5 1.5v19.667c0 .828-.671 1.5-1.5 1.5h-1c-.828 0-1.5-.672-1.5-1.5V5.5c0-.828.672-1.5 1.5-1.5h1z" transform="translate(-700 -528) translate(676 508) translate(24 20)"/>
                </g>
            </g>
        </g>
    </g>
</svg>
