<svg xmlns="http://www.w3.org/2000/svg" width="32" height="32" viewBox="0 0 32 32">
    <g fill="none" fill-rule="evenodd">
        <g fill="#FFF" fill-rule="nonzero">
            <g>
                <g>
                    <path d="M10.371 16.236l1.856 1.906c-.281.108-.57.195-.871.233L2.832 26.05c-.323.326-.526.81-.526 1.328 0 .52.203 1.005.568 1.37l.39.46c.597.583 1.946.652 2.674-.076 5.38-5.797 7.164-7.72 7.764-8.364.038-.303.128-.59.237-.87l1.87 1.918c-.053.089-.099.183-.174.256l-.048.052-3.585 3.862-.663.713-3.74 4.03C6.767 31.56 5.702 32 4.57 32c-1.139 0-2.203-.44-3.005-1.242l-.39-.459C.442 29.575 0 28.511 0 27.382c0-1.136.441-2.201 1.242-3l8.863-7.982c.079-.07.173-.117.266-.164zM6.774 0c1.716-.023 3.398.67 4.724 1.992 1.694 1.689 2.379 3.903 1.98 6.404-.072.463.079.927.405 1.244l16.762 16.276.012.01c.73.73 1.133 1.7 1.133 2.732 0 1.693-1.38 3.071-3.077 3.071-1.033 0-2.006-.402-2.737-1.13L9.74 13.936c-.355-.363-.881-.508-1.372-.377-.662.178-1.108.258-1.445.258-1.898 0-3.734-.79-5.037-2.17C.564 10.248-.101 8.417.013 6.492.038 6.073.29 5.7.67 5.52c.349-.164.782-.16 1.113.04l3.25 1.945c.683-.435 1.152-1.12 1.314-1.902L2.724 3.434c-.323-.193-.53-.532-.558-.908-.025-.375.134-.738.427-.975C3.81.571 5.255.035 6.774.001zm.05 2.302c-.405.01-.803.072-1.19.19l2.523 1.51c.347.207.56.581.56.986 0 2.017-1.123 3.831-2.931 4.734l-.273.135c-.352.175-.768.16-1.107-.043L2.71 8.8c.208.46.494.887.854 1.268.88.933 2.074 1.447 3.358 1.447.018 0 .212-.007.846-.178.318-.086.64-.127.962-.127.989 0 1.954.394 2.663 1.122L27.62 28.983c.284.283.676.445 1.094.445.425 0 .77-.344.77-.767 0-.416-.16-.806-.453-1.1L12.274 11.29c-.862-.838-1.264-2.053-1.073-3.254.285-1.792-.15-3.237-1.333-4.414-.876-.875-1.954-1.33-3.045-1.32zM28.838.121c.45-.224.998-.13 1.347.232L31.678 1.9c.338.352.418.877.201 1.312l-2.565 5.12c-.195.389-.593.636-1.031.636h-1.446l-5.913 5.903-1.653-1.605 6.275-6.264c.215-.215.509-.336.815-.336h1.21l1.88-3.756-.34-.351-3.73 1.861V5.63c0 .304-.121.597-.338.814l-6.312 6.3-1.653-1.605 5.997-5.986V3.709c0-.436.246-.835.636-1.03z" transform="translate(-700 -667) translate(676 647) translate(24 20)"/>
                </g>
            </g>
        </g>
    </g>
</svg>
