<svg xmlns="http://www.w3.org/2000/svg" width="32" height="32" viewBox="0 0 32 32">
    <defs>
        <filter id="268734yeia">
            <feColorMatrix in="SourceGraphic" values="0 0 0 0 1.000000 0 0 0 0 1.000000 0 0 0 0 1.000000 0 0 0 1.000000 0"/>
        </filter>
    </defs>
    <g fill="none" fill-rule="evenodd">
        <g>
            <g>
                <g filter="url(#268734yeia)" transform="translate(-1004 -177) translate(980 157) translate(24 20)">
                    <g>
                        <path fill="#FFF" fill-rule="nonzero" d="M9.347 26.68c0 1.467 1.186 2.653 2.653 2.653s2.653-1.186 2.653-2.653H9.347zM12 6.667c3.68 0 6.667 2.986 6.667 6.666v9.334H5.333v-9.334c0-3.68 2.987-6.666 6.667-6.666zm0-6c-1.107 0-2 .893-2 2v1.56c-4.187.906-7.333 4.64-7.333 9.106v8L0 24v1.333h24V24l-2.667-2.667v-8c0-4.466-3.146-8.2-7.333-9.106v-1.56c0-1.107-.893-2-2-2zm-1.333 8.666h2.666v5.334h-2.666V9.333zm0 8h2.666V20h-2.666v-2.667z" transform="translate(4 1.333)"/>
                    </g>
                </g>
            </g>
        </g>
    </g>
</svg>
