<svg xmlns="http://www.w3.org/2000/svg" width="32" height="32" viewBox="0 0 32 32">
    <g fill="none" fill-rule="evenodd">
        <g fill="#FFF" fill-rule="nonzero">
            <g>
                <g>
                    <path d="M30.667 26.667c.736 0 1.333.597 1.333 1.333s-.597 1.333-1.333 1.333H1.333C.597 29.333 0 28.736 0 28s.597-1.333 1.333-1.333h29.334zm0-5.334c.736 0 1.333.597 1.333 1.334 0 .736-.597 1.333-1.333 1.333H1.333C.597 24 0 23.403 0 22.667c0-.737.597-1.334 1.333-1.334h29.334zM3.2 4c1.767 0 3.2 1.46 3.2 3.26 0 .215-.02.426-.06.63l.163.097 7.502 4.872c.547-.445 1.24-.71 1.995-.71 1.517 0 2.788 1.074 3.117 2.518h6.566c.33-1.444 1.6-2.519 3.117-2.519 1.767 0 3.2 1.46 3.2 3.26 0 1.8-1.433 3.259-3.2 3.259-1.06 0-2-.525-2.582-1.333h-7.194c-.143 0-.282-.015-.415-.041-.577.83-1.53 1.374-2.609 1.374-1.767 0-3.2-1.46-3.2-3.26l.005-.154-.117-.07-7.637-4.96c-.078-.05-.153-.103-.224-.158-.475.288-1.032.454-1.627.454-1.767 0-3.2-1.46-3.2-3.26C0 5.46 1.433 4 3.2 4zM16 14.593c-.442 0-.8.364-.8.814 0 .45.358.815.8.815.442 0 .8-.365.8-.815 0-.45-.358-.814-.8-.814zm12.8 0c-.442 0-.8.364-.8.814 0 .45.358.815.8.815.442 0 .8-.365.8-.815 0-.45-.358-.814-.8-.814zM3.2 6.444c-.442 0-.8.365-.8.815 0 .45.358.815.8.815.442 0 .8-.365.8-.815 0-.45-.358-.815-.8-.815z" transform="translate(-396 -177) translate(372 157) translate(24 20)"/>
                </g>
            </g>
        </g>
    </g>
</svg>
