<svg xmlns="http://www.w3.org/2000/svg" width="32" height="32" viewBox="0 0 32 32">
    <g fill="none" fill-rule="evenodd">
        <g fill="#FFF" fill-rule="nonzero">
            <g>
                <g>
                    <path d="M9.069 13.33c5 0 9.069 4.038 9.069 9.003V32H0v-9.667c0-4.965 4.068-9.003 9.069-9.003zm0 2.216c-3.77 0-6.836 3.044-6.836 6.787v7.45h13.672v-7.45c0-3.743-3.068-6.787-6.836-6.787zm15.145-1.944c4.293 0 7.786 3.467 7.786 7.728v8.287H20.093V27.4h9.674v-6.07c0-3.04-2.491-5.511-5.553-5.511-2.05 0-3.824 1.121-4.787 2.767-.288-.792-.66-1.542-1.114-2.237 1.429-1.667 3.53-2.747 5.901-2.747zm0-11.449c3.102 0 5.626 2.506 5.626 5.586 0 3.08-2.524 5.585-5.626 5.585-3.102 0-5.626-2.506-5.626-5.585 0-3.08 2.524-5.586 5.626-5.586zM9.07 0c3.58 0 6.493 2.893 6.493 6.447 0 3.555-2.912 6.447-6.493 6.447-3.582 0-6.494-2.892-6.494-6.447C2.575 2.893 5.487 0 9.069 0zm15.145 4.37c-1.87 0-3.393 1.51-3.393 3.369 0 1.857 1.522 3.369 3.393 3.369 1.871 0 3.394-1.512 3.394-3.37S26.085 4.37 24.214 4.37zM9.07 2.216c-2.35 0-4.262 1.9-4.262 4.231 0 2.333 1.911 4.23 4.262 4.23 2.35 0 4.26-1.897 4.26-4.23 0-2.332-1.91-4.23-4.26-4.23z" transform="translate(-396 -528) translate(372 508) translate(24 20)"/>
                </g>
            </g>
        </g>
    </g>
</svg>
