<svg xmlns="http://www.w3.org/2000/svg" width="32" height="32" viewBox="0 0 32 32">
    <g fill="none" fill-rule="evenodd">
        <g fill="#FFF" fill-rule="nonzero">
            <g>
                <g>
                    <path d="M11.52.667l.162.059 9.952 3.99c.629.252 1.138.734 1.424 1.348l7.443 15.962c.623 1.335.045 2.921-1.29 3.544L15.92 31.768c-1.335.623-2.921.045-3.544-1.29L4.932 14.516c-.286-.614-.328-1.314-.117-1.958L8.155 2.37C8.615.97 10.121.208 11.52.667zM4.984 7.272c.366.293.452.805.222 1.198l-.078.114-1.593 1.987c-.241.3-.374.67-.381 1.05l.007.192 1.454 15.942c.05.54.494.95 1.023.969l.133-.004 3.305-.293c.513-.046.967.334 1.012.847.042.47-.273.89-.722.993l-.125.02-3.305.293c-1.54.136-2.91-.945-3.154-2.448l-.026-.208-1.454-15.942c-.077-.835.141-1.667.61-2.355l.166-.224 1.594-1.987c.322-.402.91-.467 1.312-.144zm5.002-4.453l-.057.132L6.59 13.14c-.051.155-.053.32-.008.474l.043.113 7.443 15.962c.168.36.57.537.941.433l.122-.046 13.293-6.198c.36-.168.536-.57.432-.941l-.045-.122-7.444-15.962c-.068-.148-.18-.27-.318-.351l-.109-.054-10-4.007c-.374-.123-.772.044-.953.378zm8.373 7.938c.394.048.686.376.701.761l-.005.13-1.534 12.485c-.054.439-.453.75-.892.697-.394-.049-.686-.377-.702-.762l.006-.13 1.534-12.485c.054-.438.453-.75.892-.696zm6.263 8.126c.623 1.335.045 2.921-1.29 3.544-1.334.622-2.921.044-3.543-1.29-.623-1.335-.045-2.922 1.29-3.544 1.334-.623 2.92-.045 3.543 1.29zm-2.867.16c-.534.249-.765.884-.516 1.418.249.533.883.764 1.417.515s.765-.883.516-1.417-.883-.765-1.417-.516zm-6.556-4.593c.623 1.334.045 2.921-1.29 3.544-1.334.622-2.921.044-3.543-1.29-.623-1.335-.045-2.922 1.29-3.544 1.334-.623 2.92-.045 3.543 1.29zm-2.867.16c-.534.249-.765.884-.516 1.417.249.534.883.765 1.417.516s.765-.883.516-1.417-.883-.765-1.417-.516zm1.017-8.86c.311.667.023 1.46-.645 1.772-.667.31-1.46.022-1.772-.645-.31-.668-.022-1.46.645-1.772.668-.311 1.46-.023 1.772.645z" transform="translate(-852 -528) translate(828 508) translate(24 20)"/>
                </g>
            </g>
        </g>
    </g>
</svg>
