<svg xmlns="http://www.w3.org/2000/svg" width="32" height="32" viewBox="0 0 32 32">
    <g fill="none" fill-rule="evenodd">
        <g fill="#FFF" fill-rule="nonzero">
            <g>
                <g>
                    <path d="M14.667 21.429c1.94 0 3.558 1.381 3.923 3.214h12.32c.602 0 1.09.448 1.09 1s-.488 1-1.09 1H18.48c-.514 1.616-2.027 2.786-3.812 2.786-1.786 0-3.298-1.17-3.812-2.785l-9.766-.001c-.601 0-1.089-.448-1.089-1s.488-1 1.09-1h9.654c.365-1.833 1.982-3.214 3.923-3.214zm0 1.904c-1.105 0-2 .896-2 2 0 1.105.895 2 2 2 1.104 0 2-.895 2-2 0-1.104-.896-2-2-2zM20 10.667c1.957 0 3.586 1.405 3.932 3.261h6.979c.601 0 1.089.448 1.089 1 0 .553-.488 1-1.09 1l-7.113.002c-.53 1.59-2.03 2.737-3.797 2.737-1.768 0-3.268-1.147-3.797-2.737L1.09 15.929c-.601 0-1.089-.448-1.089-1 0-.553.488-1 1.09-1h14.978c.346-1.857 1.975-3.262 3.932-3.262zm0 2c-1.105 0-2 .895-2 2 0 1.104.895 2 2 2s2-.896 2-2c0-1.105-.895-2-2-2zM8 0c1.94 0 3.557 1.38 3.923 3.213l18.988.001c.601 0 1.089.448 1.089 1 0 .553-.488 1-1.09 1H11.813C11.298 6.83 9.786 8 8 8S4.702 6.83 4.188 5.215H1.089c-.601 0-1.089-.448-1.089-1 0-.553.488-1 1.09-1l2.987-.002C4.443 1.381 6.06 0 8 0zm.067 2c-1.105 0-2 .895-2 2s.895 2 2 2c1.104 0 2-.895 2-2s-.896-2-2-2z" transform="translate(-396 -316) translate(372 296) translate(24 20)"/>
                </g>
            </g>
        </g>
    </g>
</svg>
