<svg width="24" height="24" viewBox="0 0 24 24" fill="none" xmlns="http://www.w3.org/2000/svg">
<path d="M16.9091 20.252L18 21.3429C14.7567 24.5863 9.5348 24.6577 6.20558 21.5418L6 21.3429L7.09091 20.252C9.80182 22.9629 14.1982 22.9629 16.9091 20.252ZM14.7284 18.2672L15.5699 19.1087C13.608 21.1524 10.5343 21.2108 8.58595 19.2839L8.41702 19.1087L9.25854 18.2672C10.8574 19.7819 13.2137 19.7819 14.7284 18.2672ZM12.9612 16.5L13.8027 17.3415C12.7563 18.3074 11.3249 18.3494 10.3187 17.4675L10.1842 17.3415L11.0257 16.5C11.6148 16.9208 12.3721 16.9208 12.9612 16.5ZM14.6667 0C17.9033 0 20.5414 2.32512 20.6623 5.23475L20.6667 5.44355C20.6667 5.48302 20.6662 5.5224 20.6653 5.56167C22.6011 6.1932 24 8.01388 24 10.1613C24 12.8336 21.8336 15 19.1613 15H4.83871C2.16636 15 0 12.8336 0 10.1613C0 8.15442 1.22175 6.43291 2.96205 5.69997C3.21906 3.58259 5.19751 1.93548 7.6 1.93548C8.3561 1.93548 9.0702 2.09862 9.70187 2.38822C10.7798 0.946709 12.6014 0 14.6667 0ZM14.6667 1.6C13.2379 1.6 11.9392 2.19919 11.1223 3.17107L10.9832 3.3464L10.2095 4.38108L9.03507 3.84265C8.5979 3.64223 8.10983 3.53548 7.6 3.53548C6.0626 3.53548 4.81214 4.50794 4.57473 5.73775L4.55039 5.89276L4.43854 6.81424L3.58307 7.17453C2.39121 7.67649 1.6 8.84575 1.6 10.1613C1.6 11.8883 2.95174 13.2996 4.65493 13.3949L4.83871 13.4H19.1613C20.95 13.4 22.4 11.95 22.4 10.1613C22.4 8.81378 21.5694 7.62594 20.3464 7.14641L20.1691 7.08278L19.0378 6.71373L19.0667 5.44355C19.0667 3.35743 17.1296 1.6 14.6667 1.6Z" fill="#787878"/>
</svg>
