<svg width="24" height="19" viewBox="0 0 24 19" fill="none" xmlns="http://www.w3.org/2000/svg">
<path fill-rule="evenodd" clip-rule="evenodd" d="M3.52159 0.95551C3.22869 0.662617 2.75382 0.662617 2.46093 0.95551C2.16803 1.2484 2.16803 1.72328 2.46093 2.01617L4.87658 4.43182C4.1398 5.06961 3.64372 5.93975 3.52692 6.91489C1.89539 7.61118 0.75 9.24662 0.75 11.1531C0.75 13.6919 2.78097 15.7499 5.28629 15.7499H16.1947L18.9784 18.5337C19.2713 18.8266 19.7462 18.8266 20.0391 18.5337C20.332 18.2408 20.332 17.7659 20.0391 17.473L3.52159 0.95551ZM14.6947 14.2499L5.94132 5.49657C5.42075 5.91687 5.08806 6.49397 5.01627 7.09329L4.91315 7.95417L4.1157 8.2945C3.02563 8.75972 2.25 9.85957 2.25 11.1531C2.25 12.8822 3.62806 14.2499 5.28629 14.2499H14.6947Z" fill="#787878"/>
<path d="M21.75 11.1531C21.75 12.8108 20.4835 14.1362 18.9178 14.243L20.1795 15.5047C21.9655 14.8871 23.25 13.1721 23.25 11.1531C23.25 9.11311 21.9386 7.38346 20.1237 6.78351C20.1246 6.7462 20.125 6.70879 20.125 6.67129L20.1209 6.47293C20.0075 3.70878 17.5344 1.49992 14.5 1.49992C12.5638 1.49992 10.8561 2.39929 9.8455 3.76872C9.29258 3.51185 8.67229 3.35971 8.01548 3.34066L10.3162 5.64135L10.3248 5.64538L11.0524 4.65939C11.773 3.68302 13.0276 2.99992 14.5 2.99992C16.8347 2.99992 18.5376 4.67193 18.6216 6.52055L18.625 6.68519C18.6249 6.70644 18.6246 6.72763 18.6241 6.74878L18.5984 7.85911L19.6529 8.20771C20.861 8.60709 21.75 9.76809 21.75 11.1531Z" fill="#787878"/>
</svg>
