<svg width="24" height="15" viewBox="0 0 24 15" fill="none" xmlns="http://www.w3.org/2000/svg">
<path fill-rule="evenodd" clip-rule="evenodd" d="M3.52692 5.91497C3.76786 3.90346 5.62267 2.33871 7.875 2.33871C8.58384 2.33871 9.25331 2.49369 9.8455 2.76881C10.8561 1.39937 12.5638 0.5 14.5 0.5C17.5344 0.5 20.0075 2.70887 20.1209 5.47301L20.125 5.67137C20.125 5.70887 20.1246 5.74628 20.1237 5.78359C21.9386 6.38354 23.25 8.11319 23.25 10.1532C23.25 12.692 21.219 14.75 18.7137 14.75H5.28629C2.78097 14.75 0.75 12.692 0.75 10.1532C0.75 8.2467 1.89539 6.61127 3.52692 5.91497ZM18.625 5.68528C18.6249 5.70652 18.6246 5.72772 18.6241 5.74886L18.5984 6.85919L19.6529 7.20779C20.861 7.60717 21.75 8.76817 21.75 10.1532C21.75 11.8823 20.3719 13.25 18.7137 13.25H5.28629C3.62806 13.25 2.25 11.8823 2.25 10.1532C2.25 8.85965 3.02563 7.7598 4.1157 7.29458L4.91315 6.95425L5.01627 6.09337C5.15638 4.92372 6.29021 3.83871 7.875 3.83871C8.36421 3.83871 8.81811 3.94548 9.21351 4.12917L10.3248 4.64546L11.0524 3.65947C11.773 2.6831 13.0276 2 14.5 2C16.8347 2 18.5376 3.67201 18.6216 5.52063L18.625 5.68528Z" fill="#33BEF2"/>
<path d="M15.1131 5.8104L15.6811 6.34814C15.773 6.43515 15.773 6.5815 15.6811 6.66851L10.8641 11.2288C10.7791 11.3093 10.6459 11.3093 10.5608 11.2288L8.31893 9.10637C8.22702 9.01936 8.22702 8.87301 8.31893 8.786L8.88693 8.24826C8.972 8.16773 9.10517 8.16773 9.19024 8.24826L10.7125 9.68939L14.8098 5.8104C14.8948 5.72987 15.028 5.72987 15.1131 5.8104Z" fill="#33BEF2"/>
</svg>
