<?xml version="1.0" encoding="UTF-8"?>
<svg width="123px" height="26px" viewBox="0 0 123 26" version="1.1" xmlns="http://www.w3.org/2000/svg" xmlns:xlink="http://www.w3.org/1999/xlink">
    <title>Combined Shape</title>
    <g id="Symbols" stroke="none" stroke-width="1" fill="none" fill-rule="evenodd">
        <g id="Page-Footer-/-Default" transform="translate(-24.000000, -8.000000)" fill="#787878">
            <path d="M43.7907663,8 C49.7132159,8 53.287631,11.2267908 54.3816665,17.4868983 L54.4511175,17.9104426 L54.7086937,17.9296255 C57.2892408,18.1552069 59.2398979,19.39371 60.5002866,21.6056313 L60.6374861,21.8554041 L60.720533,22.0180895 L60.9418057,21.9358116 C61.8351411,21.6107959 62.5649091,21.4183804 63.145261,21.3609885 L63.3331971,21.3468621 L63.4945418,21.3427159 C66.4931226,21.3427159 69.8747253,23.5093153 69.8747253,27.8033602 C69.8747253,31.3372115 67.9728919,33.4460555 64.2837794,33.9648774 L64.0106563,34 L51.4611196,34 L51.4601774,23.2828626 L43.779833,17.3707169 L35.7164266,23.2933706 L35.716477,34 L29.6054286,34 C26.1291601,34 24,31.4549447 24,27.8033602 C24,25.7721679 24.7808157,24.0982986 26.3113652,22.8307365 L26.5247207,22.6604102 L26.6662296,22.5549494 L26.6733404,22.3448793 C26.8673385,18.1137733 29.1914157,15.3391176 33.5225451,14.1280559 L33.8279718,14.0461015 L34.1068021,13.9766542 L34.2588633,13.69111 C36.2059628,10.117175 39.1855776,8.2073682 43.1244111,8.01597785 L43.4643728,8.0037826 L43.7907663,8 Z M43.7907663,9.43290008 C39.9614301,9.43290008 37.1909784,11.1395545 35.3871351,14.6212093 L35.2390504,14.9154574 L35.086426,15.2276729 L34.7467457,15.3010894 C30.3540243,16.2505065 28.1902049,18.6559524 28.0962044,22.6559722 L28.0930007,22.9311734 L28.0930007,23.3146897 L27.7738571,23.5273682 C26.1980158,24.5775146 25.4329001,25.9788852 25.4329001,27.8033602 C25.4329001,30.6336499 26.8978414,32.4633618 29.3893656,32.5628285 L29.6054286,32.5670999 L34.2835265,32.5670999 L34.2835769,22.568458 L43.8008929,15.5781178 L52.8940197,22.5785687 L52.8930775,32.5670999 L63.9266181,32.5720457 C66.8298622,32.2291336 68.2723444,30.8504803 68.4277195,28.2832589 L68.4383036,28.0465966 L68.4418252,27.8033602 C68.4418252,25.8900061 67.6630922,24.5709985 66.3152698,23.7074461 C65.3735481,23.1040832 64.1712332,22.775616 63.4945418,22.775616 C62.9808402,22.775616 62.0991255,23.0109783 60.8894175,23.4885567 L59.9697501,23.8618259 L59.6946044,23.2096744 C58.627634,20.6807364 56.801432,19.4109741 54.107091,19.3291332 L53.8252648,19.3249016 L53.1932558,19.3249016 L53.0701269,18.3659964 C52.2183922,12.3391463 49.1741488,9.43290008 43.7907663,9.43290008 Z M48.7011768,24.8002958 C49.0282592,25.1209615 49.0534194,25.6276587 48.7766573,25.9769446 L48.7011768,26.0607879 L43.8644482,30.8010132 L43.7759934,30.8735258 C43.6229311,30.9819349 43.4404552,31.0386732 43.254395,31.0386732 C43.0583385,31.0386732 42.8676725,30.975816 42.7116051,30.8581676 L42.6223501,30.7810682 L39.8518357,28.0634738 L39.7839819,27.9848565 C39.5167957,27.6320121 39.5519986,27.1360867 39.8710719,26.8232731 C40.1920126,26.5086286 40.6925529,26.4824083 41.0433966,26.7445823 L41.1351224,26.8232345 L43.253481,28.899831 L47.4576939,24.7815175 L47.5375961,24.7152194 C47.8917685,24.4574472 48.3858516,24.4911568 48.7011768,24.8002958 Z M82.2216764,19.4952301 C83.0623111,19.4952301 83.7061609,19.6767308 84.1532257,20.0397321 C84.6002906,20.4027335 84.823823,20.9586987 84.823823,21.7076278 L84.823823,21.7076278 L84.823823,25.8802329 L83.6316501,25.8802329 L83.2992173,25.031956 L83.2533645,25.031956 L83.1183534,25.1924408 C82.8912122,25.4471786 82.653457,25.638232 82.4050876,25.7656009 C82.1070444,25.9184435 81.6981903,25.9948649 81.1785252,25.9948649 C80.6206494,25.9948649 80.1583003,25.8343801 79.7914779,25.5134104 C79.4246555,25.1924408 79.2412442,24.6918811 79.2412442,24.0117312 C79.2412442,23.3468655 79.4743293,22.857769 79.9404995,22.5444415 C80.4066696,22.231114 81.1059249,22.0553449 82.0382652,22.0171342 L82.0382652,22.0171342 L83.1272693,21.9827446 L83.1272693,21.7076278 L83.1220056,21.5721749 C83.1009507,21.3120304 83.0167313,21.1164542 82.8693473,20.9854462 C82.6973992,20.8326035 82.4585826,20.7561822 82.1528972,20.7561822 C81.8472119,20.7561822 81.5491686,20.8001244 81.2587676,20.888009 C80.9683665,20.9758935 80.6779654,21.0847939 80.3875643,21.2147102 L80.3875643,21.2147102 L79.8258675,20.0569269 L80.0802072,19.9369215 C80.342428,19.823006 80.6282915,19.7273599 80.9377979,19.6499833 C81.3504732,19.5468145 81.7784327,19.4952301 82.2216764,19.4952301 Z M106.718536,17.5694124 C107.605024,17.5694124 108.334848,17.7432709 108.908008,18.090988 C109.481168,18.4387051 109.907217,18.9278017 110.186154,19.5582777 C110.465092,20.1887537 110.604561,20.9281302 110.604561,21.776407 C110.604561,22.6246839 110.465092,23.3640603 110.186154,23.9945364 C109.907217,24.6250124 109.479257,25.1160195 108.902276,25.4675576 C108.325295,25.8190958 107.593561,25.9948649 106.707073,25.9948649 C105.820586,25.9948649 105.088851,25.8190958 104.51187,25.4675576 C103.934889,25.1160195 103.50693,24.6231019 103.227992,23.9888048 C102.949054,23.3545076 102.809585,22.6132207 102.809585,21.7649438 C102.809585,20.916667 102.949054,20.1792011 103.227992,19.5525461 C103.50693,18.9258911 103.934889,18.4387051 104.51187,18.090988 C105.088851,17.7432709 105.824407,17.5694124 106.718536,17.5694124 Z M136.797975,19.5066933 C137.661536,19.5066933 138.345507,19.7531521 138.849888,20.2460697 C139.354269,20.7389874 139.606459,21.4401531 139.606459,22.3495671 L139.606459,22.3495671 L139.606459,23.1749175 L135.571412,23.1749175 L135.583144,23.3506269 C135.624519,23.7493313 135.763899,24.0690472 136.001282,24.3097744 C136.272578,24.5848912 136.648953,24.7224496 137.130408,24.7224496 C137.527799,24.7224496 137.89271,24.6823284 138.225143,24.602086 C138.557576,24.5218436 138.899562,24.3976589 139.2511,24.229532 L139.2511,24.229532 L139.2511,25.5478 L139.013955,25.6549093 C138.77466,25.7544959 138.528918,25.8315143 138.276728,25.8859645 C137.940474,25.9585647 137.53162,25.9948649 137.050165,25.9948649 C136.42351,25.9948649 135.869456,25.8783223 135.388001,25.6452372 C134.906547,25.4121522 134.528261,25.060614 134.253144,24.5906228 C133.978027,24.1206316 133.840469,23.5226346 133.840469,22.7966319 C133.840469,22.0706292 133.964654,21.4630795 134.213023,20.973983 C134.461392,20.4848864 134.807199,20.118064 135.250443,19.8735157 C135.693686,19.6289674 136.20953,19.5066933 136.797975,19.5066933 Z M99.1298974,19.5066933 C99.8406158,19.5066933 100.377476,19.688194 100.740477,20.0511953 C101.103478,20.4141967 101.284979,20.9969094 101.284979,21.7993334 L101.284979,21.7993334 L101.284979,25.8802329 L99.5769622,25.8802329 L99.5769622,22.2234718 L99.5727845,22.0491293 C99.5337927,21.2635859 99.2218577,20.8708142 98.6369798,20.8708142 C98.1860939,20.8708142 97.8651243,21.031299 97.6740709,21.3522686 C97.4830176,21.6732382 97.3874909,22.1355873 97.3874909,22.7393159 L97.3874909,22.7393159 L97.3874909,25.8802329 L95.679474,25.8802329 L95.679474,22.2234718 L95.6752963,22.0491293 C95.6363044,21.2635859 95.3243695,20.8708142 94.7394915,20.8708142 C94.2656793,20.8708142 93.938978,21.0484938 93.7593879,21.403853 C93.5797977,21.7592122 93.4900027,22.2693247 93.4900027,22.9341903 L93.4900027,22.9341903 L93.4900027,25.8802329 L91.7819858,25.8802329 L91.7819858,19.6213253 L93.0887907,19.6213253 L93.3180547,20.4237493 L93.4097603,20.4237493 L93.5111778,20.2705882 C93.6900249,20.0275259 93.9179622,19.8454946 94.1949895,19.7244941 C94.5274223,19.5792936 94.8732289,19.5066933 95.2324092,19.5066933 C95.6909372,19.5066933 96.0787755,19.5812041 96.395924,19.7302257 C96.7130726,19.8792473 96.9595314,20.1104219 97.1353005,20.4237493 L97.1353005,20.4237493 L97.2843221,20.4237493 L97.370764,20.2915716 C97.5527715,20.0379775 97.7895217,19.8489517 98.0810145,19.7244941 C98.4210895,19.5792936 98.7707171,19.5066933 99.1298974,19.5066933 Z M115.717149,19.5066933 C116.389657,19.5066933 116.928427,19.688194 117.33346,20.0511953 C117.738493,20.4141967 117.94101,20.9969094 117.94101,21.7993334 L117.94101,21.7993334 L117.94101,25.8802329 L116.232993,25.8802329 L116.232993,22.2234718 L116.22808,22.0371364 C116.208429,21.678268 116.129824,21.4022154 115.992266,21.2089786 C115.831781,20.9835356 115.575769,20.8708142 115.224231,20.8708142 C114.704566,20.8708142 114.349207,21.0484938 114.158153,21.403853 C113.9671,21.7592122 113.871573,22.2693247 113.871573,22.9341903 L113.871573,22.9341903 L113.871573,25.8802329 L112.163557,25.8802329 L112.163557,19.6213253 L113.470361,19.6213253 L113.699625,20.4237493 L113.791331,20.4237493 L113.881048,20.2915716 C114.069606,20.0379775 114.312907,19.8489517 114.61095,19.7244941 C114.958667,19.5792936 115.3274,19.5066933 115.717149,19.5066933 Z M124.899173,19.6213253 L124.899173,25.8802329 L123.191156,25.8802329 L123.191156,19.6213253 L124.899173,19.6213253 Z M130.241024,19.5066933 C130.913532,19.5066933 131.452302,19.688194 131.857335,20.0511953 C132.262368,20.4141967 132.464885,20.9969094 132.464885,21.7993334 L132.464885,21.7993334 L132.464885,25.8802329 L130.756868,25.8802329 L130.756868,22.2234718 L130.751955,22.0371364 C130.732304,21.678268 130.653699,21.4022154 130.516141,21.2089786 C130.355656,20.9835356 130.099645,20.8708142 129.748106,20.8708142 C129.228441,20.8708142 128.873082,21.0484938 128.682029,21.403853 C128.490975,21.7592122 128.395449,22.2693247 128.395449,22.9341903 L128.395449,22.9341903 L128.395449,25.8802329 L126.687432,25.8802329 L126.687432,19.6213253 L127.994237,19.6213253 L128.223501,20.4237493 L128.315206,20.4237493 L128.404923,20.2915716 C128.593481,20.0379775 128.836782,19.8489517 129.134825,19.7244941 C129.482542,19.5792936 129.851275,19.5066933 130.241024,19.5066933 Z M90.0739689,19.5066933 C90.1580323,19.5066933 90.2573801,19.5105144 90.3720121,19.5181565 C90.4866441,19.5257986 90.5783497,19.5372618 90.6471289,19.5525461 L90.6471289,19.5525461 L90.5210337,21.1573942 L90.4535282,21.1427468 C90.4042789,21.1334064 90.3465383,21.1249151 90.2803065,21.117273 C90.1809587,21.1058098 90.0930742,21.1000782 90.0166529,21.1000782 C89.7262518,21.1000782 89.4473139,21.1516626 89.1798392,21.2548314 C88.9123645,21.3580002 88.6964743,21.5242166 88.5321684,21.7534806 C88.3678625,21.9827446 88.2857096,22.2960721 88.2857096,22.6934631 L88.2857096,22.6934631 L88.2857096,25.8802329 L86.5776927,25.8802329 L86.5776927,19.6213253 L87.8730343,19.6213253 L88.1252248,20.6759398 L88.2054672,20.6759398 L88.3237674,20.4888603 C88.4925057,20.2467575 88.7052627,20.0340005 88.9620384,19.8505893 C89.283008,19.6213253 89.6536515,19.5066933 90.0739689,19.5066933 Z M78.1866298,17.6955076 L78.1866298,19.1169445 L75.2061976,19.1169445 L75.2061976,21.2261734 L77.9802922,21.2261734 L77.9802922,22.6476103 L75.2061976,22.6476103 L75.2061976,25.8802329 L73.4981807,25.8802329 L73.4981807,17.6955076 L78.1866298,17.6955076 Z M121.402896,17.1682004 L121.402896,25.8802329 L119.694879,25.8802329 L119.694879,17.1682004 L121.402896,17.1682004 Z M83.1272693,22.9800431 L82.4624036,23.0029695 L82.263947,23.0126416 C81.8192703,23.0444042 81.5033158,23.1405279 81.3160836,23.3010127 C81.1021038,23.4844239 80.9951139,23.7251511 80.9951139,24.0231944 C80.9951139,24.2830269 81.0715353,24.4683486 81.224378,24.5791596 C81.3772206,24.6899705 81.5759161,24.745376 81.8204644,24.745376 C82.1872868,24.745376 82.4967932,24.6364756 82.7489836,24.4186748 C83.0011741,24.200874 83.1272693,23.8932781 83.1272693,23.4958871 L83.1272693,23.4958871 L83.1272693,22.9800431 Z M143.985402,19.0481653 L143.985402,21.2261734 L146.151947,21.2261734 L146.151947,22.4527359 L143.985402,22.4527359 L143.985402,24.6078176 L142.758839,24.6078176 L142.758839,22.4527359 L140.592294,22.4527359 L140.592294,21.2261734 L142.758839,21.2261734 L142.758839,19.0481653 L143.985402,19.0481653 Z M106.718536,19.0137757 C105.984891,19.0137757 105.453763,19.2602345 105.125151,19.7531521 C104.79654,20.2460697 104.632234,20.920488 104.632234,21.776407 C104.632234,22.632326 104.79654,23.3067443 105.125151,23.7996619 C105.453763,24.2925796 105.98107,24.5390384 106.707073,24.5390384 C107.44836,24.5390384 107.979488,24.2925796 108.300458,23.7996619 C108.621428,23.3067443 108.781912,22.632326 108.781912,21.776407 C108.781912,20.920488 108.621428,20.2460697 108.300458,19.7531521 C107.979488,19.2602345 107.452181,19.0137757 106.718536,19.0137757 Z M136.809438,20.7217926 C136.473184,20.7217926 136.198067,20.8287824 135.984088,21.0427622 C135.770108,21.2567419 135.644013,21.5891747 135.605802,22.0400606 L135.605802,22.0400606 L138.001611,22.0400606 C137.993969,21.6655961 137.89271,21.3522686 137.697836,21.1000782 C137.502962,20.8478878 137.206829,20.7217926 136.809438,20.7217926 Z M124.050896,17.1682004 C124.303086,17.1682004 124.520887,17.2274269 124.704298,17.34588 C124.887709,17.464333 124.979415,17.6840444 124.979415,18.005014 C124.979415,18.3183415 124.887709,18.5361423 124.704298,18.6584164 C124.520887,18.7806906 124.303086,18.8418277 124.050896,18.8418277 C123.791063,18.8418277 123.571352,18.7806906 123.391762,18.6584164 C123.212171,18.5361423 123.122376,18.3183415 123.122376,18.005014 C123.122376,17.6840444 123.212171,17.464333 123.391762,17.34588 C123.571352,17.2274269 123.791063,17.1682004 124.050896,17.1682004 Z" id="Combined-Shape"></path>
        </g>
    </g>
</svg>